<mxfile host="app.diagrams.net" modified="2023-05-05T12:55:01.902Z" agent="Mozilla/5.0 (Windows NT 10.0; Win64; x64) AppleWebKit/537.36 (KHTML, like Gecko) Chrome/112.0.0.0 Safari/537.36" version="21.2.9" etag="7LabHEnKd116_sUGSq7g" type="github">
  <diagram name="第 1 页" id="fzuUsol6OjBSLkcCX3z2">
    <mxGraphModel>
      <root>
        <mxCell id="0" />
        <mxCell id="1" parent="0" />
      </root>
    </mxGraphModel>
  </diagram>
</mxfile>
